<svg id="Layer_1" data-name="Layer 1" xmlns="http://www.w3.org/2000/svg" viewBox="0 0 63.78 63.78"><defs><style>.cls-1{fill:#fff;}</style></defs><title>collisions</title><polygon class="cls-1" points="0 0 0 63.78 17.07 63.78 17.07 61.19 29.5 60.5 29.5 57.18 31.89 57.18 33.81 56.69 33.81 53.75 37.34 53.16 37.34 50.42 33.71 49.84 51.14 44.55 51.14 42.4 52.21 42.4 52.21 40.34 54.07 40.34 54.07 38.68 55.74 38.68 55.74 36.72 60.83 36.72 60.83 34.37 63.78 34.37 63.78 0 0 0"/><polygon class="cls-1" points="44.87 63.78 44.87 56.69 52.41 52.48 54.27 53.75 56.62 53.85 56.62 51.79 62.59 48.37 63.78 49.15 63.78 63.78 44.87 63.78"/></svg>